<svg width="56" height="57" viewBox="0 0 56 57" fill="none" xmlns="http://www.w3.org/2000/svg">
<g clip-path="url(#clip0_1_1288)">
<path d="M36.5217 12.825H53.5652C54.908 12.825 56 11.733 56 10.3903V3.08591C56 1.74312 54.908 0.651123 53.5652 0.651123H36.5217C35.179 0.651123 34.087 1.74312 34.087 3.08591V5.52069H28C27.328 5.52069 26.7826 6.06608 26.7826 6.73808V27.4337H21.913V24.9989C21.913 23.6562 20.821 22.5642 19.4783 22.5642H2.43478C1.092 22.5642 0 23.6562 0 24.9989V32.3033C0 33.6461 1.092 34.7381 2.43478 34.7381H19.4783C20.821 34.7381 21.913 33.6461 21.913 32.3033V29.8685H26.7826V50.5642C26.7826 51.2362 27.328 51.7816 28 51.7816H34.087V54.2163C34.087 55.5591 35.179 56.6511 36.5217 56.6511H53.5652C54.908 56.6511 56 55.5591 56 54.2163V46.912C56 45.5692 54.908 44.4772 53.5652 44.4772H36.5217C35.179 44.4772 34.087 45.5692 34.087 46.912V49.3468H29.2174V29.8685H34.087V32.3033C34.087 33.6461 35.179 34.7381 36.5217 34.7381H53.5652C54.908 34.7381 56 33.6461 56 32.3033V24.9989C56 23.6562 54.908 22.5642 53.5652 22.5642H36.5217C35.179 22.5642 34.087 23.6562 34.087 24.9989V27.4337H29.2174V7.95547H34.087V10.3903C34.087 11.733 35.179 12.825 36.5217 12.825ZM36.5217 3.08591L53.5652 3.08469V10.3903H36.5217V3.08591ZM19.4783 32.3033H2.43478V24.9989L19.4783 24.9977V32.3033ZM36.5217 46.912L53.5652 46.9108V54.2163H36.5217V46.912ZM36.5217 24.9989L53.5652 24.9977V32.3033H36.5217V24.9989Z" fill="white"/>
</g>
<defs>
<clipPath id="clip0_1_1288">
<rect width="56" height="56" fill="white" transform="translate(0 0.651123)"/>
</clipPath>
</defs>
</svg>
