<svg width="189" height="23" viewBox="0 0 189 23" fill="none" xmlns="http://www.w3.org/2000/svg">
<path d="M21.6562 11.75C21.6562 5.86328 16.8867 1.09375 11 1.09375C5.11328 1.09375 0.34375 5.86328 0.34375 11.75C0.34375 17.0781 4.21094 21.5039 9.32422 22.2773V14.8438H6.61719V11.75H9.32422V9.42969C9.32422 6.76562 10.9141 5.26172 13.3203 5.26172C14.5234 5.26172 15.7266 5.47656 15.7266 5.47656V8.09766H14.3945C13.0625 8.09766 12.6328 8.91406 12.6328 9.77344V11.75H15.5977L15.125 14.8438H12.6328V22.2773C17.7461 21.5039 21.6562 17.0781 21.6562 11.75ZM63.3227 7.28125C64.182 6.63672 64.9555 5.86328 65.557 4.96094C64.7836 5.30469 63.8812 5.5625 62.9789 5.64844C63.9242 5.08984 64.6117 4.23047 64.9555 3.15625C64.0961 3.67188 63.1078 4.05859 62.1195 4.27344C61.2602 3.37109 60.1 2.85547 58.8109 2.85547C56.3187 2.85547 54.2992 4.875 54.2992 7.36719C54.2992 7.71094 54.3422 8.05469 54.4281 8.39844C50.6898 8.18359 47.3383 6.37891 45.1039 3.67188C44.7172 4.31641 44.5023 5.08984 44.5023 5.94922C44.5023 7.49609 45.2758 8.87109 46.5219 9.6875C45.7914 9.64453 45.0609 9.47266 44.4594 9.12891V9.17188C44.4594 11.3633 46.0062 13.168 48.0687 13.5977C47.725 13.6836 47.2953 13.7695 46.9086 13.7695C46.6078 13.7695 46.35 13.7266 46.0492 13.6836C46.6078 15.4883 48.2836 16.7773 50.2602 16.8203C48.7133 18.0234 46.7797 18.7539 44.6742 18.7539C44.2875 18.7539 43.9437 18.7109 43.6 18.668C45.5766 19.957 47.9398 20.6875 50.518 20.6875C58.8109 20.6875 63.3227 13.8555 63.3227 7.88281C63.3227 7.66797 63.3227 7.49609 63.3227 7.28125ZM96.825 6.80859C94.075 6.80859 91.8836 9.04297 91.8836 11.75C91.8836 14.5 94.075 16.6914 96.825 16.6914C99.532 16.6914 101.766 14.5 101.766 11.75C101.766 9.04297 99.532 6.80859 96.825 6.80859ZM96.825 14.9727C95.0633 14.9727 93.6023 13.5547 93.6023 11.75C93.6023 9.98828 95.0203 8.57031 96.825 8.57031C98.5867 8.57031 100.005 9.98828 100.005 11.75C100.005 13.5547 98.5867 14.9727 96.825 14.9727ZM103.098 6.63672C103.098 5.99219 102.583 5.47656 101.938 5.47656C101.294 5.47656 100.778 5.99219 100.778 6.63672C100.778 7.28125 101.294 7.79688 101.938 7.79688C102.583 7.79688 103.098 7.28125 103.098 6.63672ZM106.364 7.79688C106.278 6.25 105.934 4.875 104.817 3.75781C103.7 2.64062 102.325 2.29688 100.778 2.21094C99.1883 2.125 94.4187 2.125 92.8289 2.21094C91.282 2.29688 89.95 2.64062 88.7898 3.75781C87.6727 4.875 87.3289 6.25 87.243 7.79688C87.157 9.38672 87.157 14.1562 87.243 15.7461C87.3289 17.293 87.6727 18.625 88.7898 19.7852C89.95 20.9023 91.282 21.2461 92.8289 21.332C94.4187 21.418 99.1883 21.418 100.778 21.332C102.325 21.2461 103.7 20.9023 104.817 19.7852C105.934 18.625 106.278 17.293 106.364 15.7461C106.45 14.1562 106.45 9.38672 106.364 7.79688ZM104.302 17.4219C104.001 18.2812 103.313 18.9258 102.497 19.2695C101.208 19.7852 98.2 19.6562 96.825 19.6562C95.407 19.6562 92.3992 19.7852 91.1531 19.2695C90.2937 18.9258 89.6492 18.2812 89.3055 17.4219C88.7898 16.1758 88.9187 13.168 88.9187 11.75C88.9187 10.375 88.7898 7.36719 89.3055 6.07812C89.6492 5.26172 90.2937 4.61719 91.1531 4.27344C92.3992 3.75781 95.407 3.88672 96.825 3.88672C98.2 3.88672 101.208 3.75781 102.497 4.27344C103.313 4.57422 103.958 5.26172 104.302 6.07812C104.817 7.36719 104.688 10.375 104.688 11.75C104.688 13.168 104.817 16.1758 104.302 17.4219ZM132.347 20V7.15234H128.351V20H132.347ZM130.327 5.43359C131.616 5.43359 132.648 4.35938 132.648 3.07031C132.648 1.82422 131.616 0.792969 130.327 0.792969C129.081 0.792969 128.05 1.82422 128.05 3.07031C128.05 4.35938 129.081 5.43359 130.327 5.43359ZM147.257 20H147.3V12.9531C147.3 9.51562 146.527 6.85156 142.488 6.85156C140.554 6.85156 139.265 7.92578 138.706 8.91406H138.663V7.15234H134.839V20H138.835V13.6406C138.835 11.9648 139.136 10.375 141.198 10.375C143.261 10.375 143.304 12.2656 143.304 13.7695V20H147.257ZM188.107 7.36719C188.236 4.875 187.291 3.58594 185.314 3.54297C182.65 3.45703 180.845 4.96094 179.9 8.05469C181.103 7.53906 182.822 7.41016 182.65 9.38672C182.564 10.0312 182.134 11.0195 181.318 12.2656C179.084 15.832 178.525 14.6289 177.322 6.85156C176.978 4.66016 176.033 3.62891 174.529 3.75781C173.197 3.88672 171.091 6.03516 168.9 8.01172L169.802 9.17188C170.662 8.57031 171.134 8.26953 171.306 8.26953C172.552 8.26953 173.197 11.4922 174.701 17.0781C175.474 19.1406 176.42 20.1719 177.537 20.1719C179.384 20.1719 181.576 18.4531 184.197 15.0586C186.732 11.793 188.021 9.25781 188.107 7.36719Z" fill="#CDCDCD"/>
</svg>
