<svg width="150" height="28" viewBox="0 0 150 28" fill="none" xmlns="http://www.w3.org/2000/svg">
<path d="M40.8 21L36.24 5.16H40.632L43.32 17.664L46.152 5.16H49.896L52.8 17.64L55.44 5.16H59.688L55.104 21H50.616L48.744 13.32L48.024 9.456H47.976L47.28 13.32L45.432 21H40.8ZM67.1288 13.392C67.1288 12.832 66.9688 12.392 66.6488 12.072C66.3448 11.736 65.9288 11.568 65.4008 11.568C64.8728 11.568 64.4168 11.704 64.0328 11.976C63.6648 12.232 63.4088 12.696 63.2648 13.368L59.8088 12.552C60.0328 11.4 60.6248 10.48 61.5848 9.792C62.5448 9.104 63.8968 8.76 65.6408 8.76C66.8088 8.76 67.8008 8.936 68.6168 9.288C69.4488 9.624 70.0808 10.136 70.5128 10.824C70.9608 11.496 71.1848 12.328 71.1848 13.32V17.712C71.1848 18.336 71.4648 18.648 72.0248 18.648C72.3128 18.648 72.5448 18.616 72.7208 18.552L72.4808 20.88C72.0008 21.104 71.4168 21.216 70.7288 21.216C70.1048 21.216 69.5528 21.12 69.0728 20.928C68.5928 20.72 68.2168 20.416 67.9448 20.016C67.6728 19.6 67.5368 19.08 67.5368 18.456V18.312L67.9928 18.144C67.9928 18.832 67.7848 19.408 67.3688 19.872C66.9688 20.336 66.4408 20.68 65.7848 20.904C65.1448 21.128 64.4728 21.24 63.7688 21.24C62.9528 21.24 62.2408 21.112 61.6328 20.856C61.0248 20.6 60.5528 20.232 60.2168 19.752C59.8968 19.256 59.7368 18.648 59.7368 17.928C59.7368 17.064 59.9928 16.352 60.5048 15.792C61.0328 15.216 61.8568 14.816 62.9768 14.592L67.5128 13.656L67.4888 15.816L65.1848 16.296C64.7048 16.392 64.3448 16.536 64.1048 16.728C63.8808 16.904 63.7688 17.176 63.7688 17.544C63.7688 17.896 63.8968 18.16 64.1528 18.336C64.4088 18.512 64.7128 18.6 65.0648 18.6C65.3368 18.6 65.5928 18.56 65.8328 18.48C66.0888 18.4 66.3128 18.28 66.5048 18.12C66.6968 17.944 66.8488 17.728 66.9608 17.472C67.0728 17.216 67.1288 16.912 67.1288 16.56V13.392ZM74.3312 21V9H77.9312L78.0992 11.592C78.4032 10.696 78.8512 10 79.4432 9.504C80.0512 9.008 80.8192 8.76 81.7472 8.76C82.0512 8.76 82.3072 8.784 82.5152 8.832C82.7392 8.88 82.9152 8.944 83.0432 9.024L82.6352 12.384C82.4752 12.32 82.2672 12.272 82.0112 12.24C81.7712 12.192 81.4752 12.168 81.1232 12.168C80.6432 12.168 80.1952 12.272 79.7792 12.48C79.3632 12.688 79.0272 13 78.7712 13.416C78.5312 13.816 78.4112 14.328 78.4112 14.952V21H74.3312ZM97.8197 9L92.0597 15.144L91.2917 15.36L87.8597 19.2L87.8357 15.024L93.2837 9H97.8197ZM88.7237 3.912V21H84.6437V3.912H88.7237ZM92.6837 12.6L98.0837 21H93.5717L90.0197 15L92.6837 12.6ZM101.613 7.608C100.781 7.608 100.173 7.456 99.7894 7.152C99.4214 6.832 99.2374 6.336 99.2374 5.664C99.2374 4.976 99.4214 4.48 99.7894 4.176C100.173 3.856 100.781 3.696 101.613 3.696C102.429 3.696 103.029 3.856 103.413 4.176C103.797 4.48 103.989 4.976 103.989 5.664C103.989 6.336 103.797 6.832 103.413 7.152C103.029 7.456 102.429 7.608 101.613 7.608ZM103.653 9V21H99.5734V9H103.653ZM106.558 21V9H110.206L110.422 13.128L109.966 12.672C110.126 11.808 110.406 11.088 110.806 10.512C111.222 9.936 111.734 9.504 112.342 9.216C112.966 8.912 113.662 8.76 114.43 8.76C115.262 8.76 115.982 8.92 116.59 9.24C117.214 9.56 117.702 10.032 118.054 10.656C118.406 11.28 118.582 12.064 118.582 13.008V21H114.502V14.088C114.502 13.256 114.342 12.68 114.022 12.36C113.702 12.04 113.294 11.88 112.798 11.88C112.414 11.88 112.054 11.976 111.718 12.168C111.382 12.344 111.118 12.632 110.926 13.032C110.734 13.432 110.638 13.968 110.638 14.64V21H106.558ZM127.153 8.76C128.417 8.76 129.521 9.008 130.465 9.504C131.425 9.984 132.169 10.696 132.697 11.64C133.241 12.568 133.513 13.688 133.513 15C133.513 16.312 133.241 17.44 132.697 18.384C132.169 19.312 131.425 20.024 130.465 20.52C129.521 21 128.417 21.24 127.153 21.24C125.921 21.24 124.825 21 123.865 20.52C122.905 20.024 122.153 19.312 121.609 18.384C121.081 17.44 120.817 16.312 120.817 15C120.817 13.688 121.081 12.568 121.609 11.64C122.153 10.696 122.905 9.984 123.865 9.504C124.825 9.008 125.921 8.76 127.153 8.76ZM127.153 11.664C126.689 11.664 126.289 11.776 125.953 12C125.617 12.224 125.361 12.584 125.185 13.08C125.009 13.576 124.921 14.216 124.921 15C124.921 15.784 125.009 16.424 125.185 16.92C125.361 17.4 125.617 17.76 125.953 18C126.289 18.224 126.689 18.336 127.153 18.336C127.633 18.336 128.041 18.224 128.377 18C128.713 17.76 128.969 17.4 129.145 16.92C129.321 16.424 129.409 15.784 129.409 15C129.409 14.216 129.321 13.576 129.145 13.08C128.969 12.584 128.713 12.224 128.377 12C128.041 11.776 127.633 11.664 127.153 11.664ZM135.808 21V9H139.456L139.672 13.128L139.216 12.672C139.376 11.808 139.656 11.088 140.056 10.512C140.472 9.936 140.984 9.504 141.592 9.216C142.216 8.912 142.912 8.76 143.68 8.76C144.512 8.76 145.232 8.92 145.84 9.24C146.464 9.56 146.952 10.032 147.304 10.656C147.656 11.28 147.832 12.064 147.832 13.008V21H143.752V14.088C143.752 13.256 143.592 12.68 143.272 12.36C142.952 12.04 142.544 11.88 142.048 11.88C141.664 11.88 141.304 11.976 140.968 12.168C140.632 12.344 140.368 12.632 140.176 13.032C139.984 13.432 139.888 13.968 139.888 14.64V21H135.808Z" fill="#0F0D1C"/>
<circle cx="14" cy="14" r="14" fill="#F55529"/>
<path d="M17.9996 18L17.9996 10M17.9996 18L13.9996 10L9.99963 18M17.9996 18L9.99963 18M9.99963 18L9.99963 10" stroke="black" stroke-linecap="round" stroke-linejoin="round"/>
</svg>
