<svg width="56" height="57" viewBox="0 0 56 57" fill="none" xmlns="http://www.w3.org/2000/svg">
<path d="M11.8125 30.4011C11.8125 30.7492 11.6742 31.0831 11.4281 31.3292C11.1819 31.5754 10.8481 31.7136 10.5 31.7136H5.25C4.9019 31.7136 4.56806 31.5754 4.32192 31.3292C4.07578 31.0831 3.9375 30.7492 3.9375 30.4011C3.9375 30.053 4.07578 29.7192 4.32192 29.4731C4.56806 29.2269 4.9019 29.0886 5.25 29.0886H7.4375V14.2136H5.25C4.9019 14.2136 4.56806 14.0754 4.32192 13.8292C4.07578 13.5831 3.9375 13.2492 3.9375 12.9011C3.9375 12.553 4.07578 12.2192 4.32192 11.9731C4.56806 11.7269 4.9019 11.5886 5.25 11.5886H8.75C8.97264 11.5877 9.19186 11.6435 9.38702 11.7506C9.58218 11.8578 9.74688 12.0128 9.86562 12.2011L17.5 24.4293L25.1344 12.2011C25.2531 12.0128 25.4178 11.8578 25.613 11.7506C25.8081 11.6435 26.0274 11.5877 26.25 11.5886H29.75C30.0981 11.5886 30.4319 11.7269 30.6781 11.9731C30.9242 12.2192 31.0625 12.553 31.0625 12.9011C31.0625 13.2492 30.9242 13.5831 30.6781 13.8292C30.4319 14.0754 30.0981 14.2136 29.75 14.2136H27.5625V29.0886H29.75C30.0981 29.0886 30.4319 29.2269 30.6781 29.4731C30.9242 29.7192 31.0625 30.053 31.0625 30.4011C31.0625 30.7492 30.9242 31.0831 30.6781 31.3292C30.4319 31.5754 30.0981 31.7136 29.75 31.7136H24.5C24.1519 31.7136 23.8181 31.5754 23.5719 31.3292C23.3258 31.0831 23.1875 30.7492 23.1875 30.4011C23.1875 30.053 23.3258 29.7192 23.5719 29.4731C23.8181 29.2269 24.1519 29.0886 24.5 29.0886H24.9375V17.473L18.6156 27.6011C18.4979 27.7911 18.3337 27.9478 18.1384 28.0565C17.9432 28.1652 17.7234 28.2222 17.5 28.2222C17.2766 28.2222 17.0568 28.1652 16.8616 28.0565C16.6663 27.9478 16.5021 27.7911 16.3844 27.6011L10.0625 17.473V29.0886H10.5C10.8481 29.0886 11.1819 29.2269 11.4281 29.4731C11.6742 29.7192 11.8125 30.053 11.8125 30.4011ZM36.75 24.7136H52.5C52.8481 24.7136 53.1819 24.5754 53.4281 24.3292C53.6742 24.0831 53.8125 23.7492 53.8125 23.4011C53.8125 23.053 53.6742 22.7192 53.4281 22.4731C53.1819 22.2269 52.8481 22.0886 52.5 22.0886H36.75C36.4019 22.0886 36.0681 22.2269 35.8219 22.4731C35.5758 22.7192 35.4375 23.053 35.4375 23.4011C35.4375 23.7492 35.5758 24.0831 35.8219 24.3292C36.0681 24.5754 36.4019 24.7136 36.75 24.7136ZM52.5 29.0886H36.75C36.4019 29.0886 36.0681 29.2269 35.8219 29.4731C35.5758 29.7192 35.4375 30.053 35.4375 30.4011C35.4375 30.7492 35.5758 31.0831 35.8219 31.3292C36.0681 31.5754 36.4019 31.7136 36.75 31.7136H52.5C52.8481 31.7136 53.1819 31.5754 53.4281 31.3292C53.6742 31.0831 53.8125 30.7492 53.8125 30.4011C53.8125 30.053 53.6742 29.7192 53.4281 29.4731C53.1819 29.2269 52.8481 29.0886 52.5 29.0886ZM52.5 36.0886H15.75C15.4019 36.0886 15.0681 36.2269 14.8219 36.4731C14.5758 36.7192 14.4375 37.053 14.4375 37.4011C14.4375 37.7492 14.5758 38.0831 14.8219 38.3292C15.0681 38.5754 15.4019 38.7136 15.75 38.7136H52.5C52.8481 38.7136 53.1819 38.5754 53.4281 38.3292C53.6742 38.0831 53.8125 37.7492 53.8125 37.4011C53.8125 37.053 53.6742 36.7192 53.4281 36.4731C53.1819 36.2269 52.8481 36.0886 52.5 36.0886ZM52.5 43.0886H15.75C15.4019 43.0886 15.0681 43.2269 14.8219 43.4731C14.5758 43.7192 14.4375 44.053 14.4375 44.4011C14.4375 44.7492 14.5758 45.0831 14.8219 45.3292C15.0681 45.5754 15.4019 45.7136 15.75 45.7136H52.5C52.8481 45.7136 53.1819 45.5754 53.4281 45.3292C53.6742 45.0831 53.8125 44.7492 53.8125 44.4011C53.8125 44.053 53.6742 43.7192 53.4281 43.4731C53.1819 43.2269 52.8481 43.0886 52.5 43.0886Z" fill="white"/>
</svg>
