<svg width="56" height="57" viewBox="0 0 56 57" fill="none" xmlns="http://www.w3.org/2000/svg">
<g clip-path="url(#clip0_1_1275)">
<path d="M5.10595 30.8776C3.44662 30.8776 1.83779 30.343 0.790486 29.8059L0 33.0227C0.969825 33.5589 2.91122 34.0691 4.87698 34.0691C9.60075 34.0691 11.8216 31.6184 11.8216 28.7333C11.8216 26.3079 10.3912 24.7252 7.35378 23.6013C5.13206 22.7577 4.16224 22.2736 4.16224 21.1758C4.16224 20.2817 4.97884 19.5156 6.66428 19.5156C8.34972 19.5156 9.5755 20.0014 10.2641 20.3331L11.133 17.1929C10.1109 16.7333 8.68142 16.325 6.74089 16.325C2.68138 16.325 0.229833 18.571 0.229833 21.5075C0.229833 24.0096 2.09374 25.5923 4.9536 26.5882C7.02122 27.3291 7.83869 27.942 7.83869 29.0128C7.83869 30.1376 6.89325 30.8776 5.10595 30.8776Z" fill="white"/>
<path d="M25.4305 30.6225H18.3588V26.5378H24.6896V23.3715H18.3588V19.7969H25.0735V16.6053H14.4516V33.8141H25.4305V30.6225Z" fill="white"/>
<path d="M38.5895 35.1199C41.0053 35.1199 43.2192 34.2502 44.943 32.8103L48.3704 36.0088C48.3652 36.3657 48.4949 36.7192 48.7752 36.9812L53.8046 41.6771C54.0562 41.9122 54.3748 42.028 54.6943 42.028C55.0434 42.028 55.3925 41.8887 55.6493 41.6118C56.1412 41.086 56.1125 40.2572 55.5867 39.7662L50.5573 35.0712C50.277 34.8091 49.9131 34.7055 49.5596 34.7342L46.1774 31.5784C47.6322 29.852 48.5141 27.6251 48.5141 25.1953C48.5141 19.7237 44.0637 15.2733 38.5921 15.2733C33.1205 15.2733 28.6675 19.7255 28.6675 25.1962C28.6666 30.6695 33.1179 35.1199 38.5895 35.1199ZM38.5895 17.8859C42.6211 17.8859 45.9006 21.1654 45.9006 25.1962C45.9006 29.227 42.6194 32.5073 38.5895 32.5073C34.5596 32.5073 31.2783 29.227 31.2783 25.1962C31.2783 21.1654 34.5578 17.8859 38.5895 17.8859Z" fill="white"/>
</g>
<defs>
<clipPath id="clip0_1_1275">
<rect width="56" height="56" fill="white" transform="translate(0 0.651123)"/>
</clipPath>
</defs>
</svg>
