<svg width="16" height="16" viewBox="0 0 16 16" fill="none" xmlns="http://www.w3.org/2000/svg">
<path d="M9.11104 15.2943V12.4217C9.11104 12.032 9.40466 11.7163 9.76667 11.7163C11.0584 11.7163 11.7612 10.2908 11.8587 7.47683H9.76667C9.40471 7.47683 9.11104 7.1607 9.11104 6.77139V0.705891C9.11104 0.316277 9.40466 0.000591822 9.76667 0.000591822H15.3443C15.7062 0.000591822 16 0.316623 16 0.705891V6.77144C16 8.12024 15.8735 9.35798 15.625 10.4511C15.3698 11.5717 14.9781 12.5514 14.4609 13.3633C13.929 14.1976 13.2631 14.8523 12.4829 15.3083C11.6967 15.7671 10.7829 16 9.76639 16C9.40471 15.9997 9.11104 15.6837 9.11104 15.2943ZM0.655487 11.716C0.293528 11.716 0 12.032 0 12.4212V15.2943C0 15.6837 0.293528 15.9995 0.655487 15.9995C1.67147 15.9995 2.58578 15.7665 3.37144 15.3077C4.1521 14.8518 4.8179 14.1977 5.34973 13.3628C5.8672 12.5509 6.25891 11.5711 6.51412 10.45C6.76268 9.35684 6.88896 8.11905 6.88896 6.77084V0.705299C6.88896 0.315686 6.59516 0 6.23333 0H0.655487C0.293528 0 0 0.315982 0 0.705299V6.77084C0 7.16041 0.293528 7.47629 0.655487 7.47629H2.71815C2.62181 10.2905 1.9292 11.716 0.655487 11.716Z" fill="#F54C1E"/>
</svg>
