<svg width="51" height="35" viewBox="0 0 51 35" fill="none" xmlns="http://www.w3.org/2000/svg">
<path d="M8.8125 19.4011C8.8125 19.7492 8.67422 20.0831 8.42808 20.3292C8.18194 20.5754 7.8481 20.7136 7.5 20.7136H2.25C1.9019 20.7136 1.56806 20.5754 1.32192 20.3292C1.07578 20.0831 0.9375 19.7492 0.9375 19.4011C0.9375 19.053 1.07578 18.7192 1.32192 18.4731C1.56806 18.2269 1.9019 18.0886 2.25 18.0886H4.4375V3.21363H2.25C1.9019 3.21363 1.56806 3.07535 1.32192 2.82921C1.07578 2.58307 0.9375 2.24923 0.9375 1.90113C0.9375 1.55304 1.07578 1.2192 1.32192 0.973056C1.56806 0.726915 1.9019 0.588634 2.25 0.588634H5.75C5.97264 0.587724 6.19186 0.643465 6.38702 0.750614C6.58218 0.857763 6.74688 1.0128 6.86562 1.20113L14.5 13.4293L22.1344 1.20113C22.2531 1.0128 22.4178 0.857763 22.613 0.750614C22.8081 0.643465 23.0274 0.587724 23.25 0.588634H26.75C27.0981 0.588634 27.4319 0.726915 27.6781 0.973056C27.9242 1.2192 28.0625 1.55304 28.0625 1.90113C28.0625 2.24923 27.9242 2.58307 27.6781 2.82921C27.4319 3.07535 27.0981 3.21363 26.75 3.21363H24.5625V18.0886H26.75C27.0981 18.0886 27.4319 18.2269 27.6781 18.4731C27.9242 18.7192 28.0625 19.053 28.0625 19.4011C28.0625 19.7492 27.9242 20.0831 27.6781 20.3292C27.4319 20.5754 27.0981 20.7136 26.75 20.7136H21.5C21.1519 20.7136 20.8181 20.5754 20.5719 20.3292C20.3258 20.0831 20.1875 19.7492 20.1875 19.4011C20.1875 19.053 20.3258 18.7192 20.5719 18.4731C20.8181 18.2269 21.1519 18.0886 21.5 18.0886H21.9375V6.47301L15.6156 16.6011C15.4979 16.7911 15.3337 16.9478 15.1384 17.0565C14.9432 17.1652 14.7234 17.2222 14.5 17.2222C14.2766 17.2222 14.0568 17.1652 13.8616 17.0565C13.6663 16.9478 13.5021 16.7911 13.3844 16.6011L7.0625 6.47301V18.0886H7.5C7.8481 18.0886 8.18194 18.2269 8.42808 18.4731C8.67422 18.7192 8.8125 19.053 8.8125 19.4011ZM33.75 13.7136H49.5C49.8481 13.7136 50.1819 13.5754 50.4281 13.3292C50.6742 13.0831 50.8125 12.7492 50.8125 12.4011C50.8125 12.053 50.6742 11.7192 50.4281 11.4731C50.1819 11.2269 49.8481 11.0886 49.5 11.0886H33.75C33.4019 11.0886 33.0681 11.2269 32.8219 11.4731C32.5758 11.7192 32.4375 12.053 32.4375 12.4011C32.4375 12.7492 32.5758 13.0831 32.8219 13.3292C33.0681 13.5754 33.4019 13.7136 33.75 13.7136ZM49.5 18.0886H33.75C33.4019 18.0886 33.0681 18.2269 32.8219 18.4731C32.5758 18.7192 32.4375 19.053 32.4375 19.4011C32.4375 19.7492 32.5758 20.0831 32.8219 20.3292C33.0681 20.5754 33.4019 20.7136 33.75 20.7136H49.5C49.8481 20.7136 50.1819 20.5754 50.4281 20.3292C50.6742 20.0831 50.8125 19.7492 50.8125 19.4011C50.8125 19.053 50.6742 18.7192 50.4281 18.4731C50.1819 18.2269 49.8481 18.0886 49.5 18.0886ZM49.5 25.0886H12.75C12.4019 25.0886 12.0681 25.2269 11.8219 25.4731C11.5758 25.7192 11.4375 26.053 11.4375 26.4011C11.4375 26.7492 11.5758 27.0831 11.8219 27.3292C12.0681 27.5754 12.4019 27.7136 12.75 27.7136H49.5C49.8481 27.7136 50.1819 27.5754 50.4281 27.3292C50.6742 27.0831 50.8125 26.7492 50.8125 26.4011C50.8125 26.053 50.6742 25.7192 50.4281 25.4731C50.1819 25.2269 49.8481 25.0886 49.5 25.0886ZM49.5 32.0886H12.75C12.4019 32.0886 12.0681 32.2269 11.8219 32.4731C11.5758 32.7192 11.4375 33.053 11.4375 33.4011C11.4375 33.7492 11.5758 34.0831 11.8219 34.3292C12.0681 34.5754 12.4019 34.7136 12.75 34.7136H49.5C49.8481 34.7136 50.1819 34.5754 50.4281 34.3292C50.6742 34.0831 50.8125 33.7492 50.8125 33.4011C50.8125 33.053 50.6742 32.7192 50.4281 32.4731C50.1819 32.2269 49.8481 32.0886 49.5 32.0886Z" fill="white"/>
</svg>
