<svg width="16" height="16" viewBox="0 0 16 16" fill="none" xmlns="http://www.w3.org/2000/svg">
<path d="M6.88896 0.705743V3.57828C6.88896 3.96804 6.59534 4.28373 6.23333 4.28373C4.94157 4.28373 4.23882 5.70922 4.14129 8.52317H6.23333C6.59529 8.52317 6.88896 8.8393 6.88896 9.22861V15.2941C6.88896 15.6837 6.59534 15.9994 6.23333 15.9994H0.655669C0.293756 15.9994 0 15.6834 0 15.2941V9.22856C0 7.87976 0.12655 6.64202 0.374976 5.54889C0.630185 4.42828 1.02194 3.44857 1.53909 2.6367C2.07096 1.80238 2.73686 1.14768 3.51711 0.691736C4.30327 0.23288 5.21713 0 6.23361 0C6.59529 0.000295639 6.88896 0.316277 6.88896 0.705743ZM15.3445 4.28397C15.7065 4.28397 16 3.96804 16 3.57882V0.705694C16 0.316278 15.7065 0.000542641 15.3445 0.000542641C14.3285 0.000542641 13.4142 0.233473 12.6286 0.69228C11.8479 1.14818 11.1821 1.80233 10.6503 2.63724C10.1328 3.44912 9.74109 4.42887 9.48588 5.55002C9.23732 6.64316 9.11104 7.88095 9.11104 9.22916V15.2947C9.11104 15.6843 9.40484 16 9.76667 16H15.3445C15.7065 16 16 15.684 16 15.2947V9.22916C16 8.83959 15.7065 8.52371 15.3445 8.52371H13.2818C13.3782 5.70952 14.0708 4.28397 15.3445 4.28397Z" fill="#F54C1E"/>
</svg>
